<svg id="Layer_1" data-name="Layer 1" xmlns="http://www.w3.org/2000/svg" viewBox="0 0 512 512"><title>clouds</title><path d="M.07,256C.07,114.65,114.65.05,256,.05S511.94,114.66,511.93,256,397.34,511.95,256,511.95.05,397.35.07,256Z" fill="#00b6eb"/><path d="M145.22,264.39H193a73.25,73.25,0,0,1,116.35-18.55l1,1a33.77,33.77,0,0,0-51.31-42.13,58.46,58.46,0,1,0-114.35,18.33,20.66,20.66,0,0,0,.47,41.31Z" fill="#fff"/><path d="M349.09,287.84a38.2,38.2,0,0,0-24.65,9,66.4,66.4,0,1,0-129.87,20.82,23.46,23.46,0,0,0,.52,46.91h154a38.36,38.36,0,0,0,0-76.71Z" fill="#fff"/></svg>